<svg width="512" height="512" viewBox="0 0 512 512" fill="none" xmlns="http://www.w3.org/2000/svg">
<g clip-path="url(#clip0_12_62)">
<rect width="512" height="512" rx="29" fill="#151515"/>
<path d="M154.483 306.686C181.725 388.409 215.776 436.082 270.259 461.621V313.496H380.927V250.5H270.259V167.073H396.25V97.2672H224.289C187.967 97.8348 132.349 88.7543 100 53C103.405 160.263 169.36 187.504 202.155 267.526C234.951 347.547 190.237 333.927 154.483 306.686Z" fill="white"/>
<path d="M150.105 254.369C142.565 248.797 132.592 233.474 132.592 233.474C132.592 233.474 128.214 254.679 132.592 270.931C141.473 303.898 176.033 273.53 150.105 254.369Z" fill="white"/>
</g>
<defs>
<clipPath id="clip0_12_62">
<rect width="512" height="512" fill="white"/>
</clipPath>
</defs>
</svg>
